<svg id="PC_MARQUEUR_personnalisable_V" data-name="PC_MARQUEUR personnalisable_V" xmlns="http://www.w3.org/2000/svg" width="170.002" height="103" viewBox="0 0 170.002 103">
  <path id="Tracé_14" data-name="Tracé 14" d="M137.144,0,0,24.188,13.9,103,170,75.474,158.69,11.335Z" fill="#fff"/>
  <g id="Groupe_2" data-name="Groupe 2" transform="translate(24.647 18)">
    <path id="Tracé_15" data-name="Tracé 15" d="M135.251,60.747l-5.946-8.3,4.022-2.886a1.227,1.227,0,0,0,.51-1.089,1.213,1.213,0,0,0-.661-1.008L113.589,37.15a1.239,1.239,0,0,0-1.8,1.3l3.5,21.859a1.251,1.251,0,0,0,.742.95,1.226,1.226,0,0,0,1.194-.139l4.022-2.886,5.946,8.3a1.228,1.228,0,0,0,1.727.278l6.027-4.323a1.248,1.248,0,0,0,.3-1.739" transform="translate(-6.875 -12.117)" fill="#222221"/>
    <path id="Tracé_16" data-name="Tracé 16" d="M108.753,23.2A1.483,1.483,0,0,1,107.037,22l-.834-4.729a1.482,1.482,0,0,1,2.921-.51l.834,4.729a1.485,1.485,0,0,1-1.205,1.715" transform="translate(-7.765 -15.531)" fill="#222221"/>
    <path id="Tracé_17" data-name="Tracé 17" d="M112.546,23.26a1.474,1.474,0,0,1-.591-2.005l2.295-4.219a1.478,1.478,0,0,1,2.6,1.414l-2.295,4.219a1.471,1.471,0,0,1-2.005.591" transform="translate(-6.876 -15.415)" fill="#222221"/>
    <path id="Tracé_18" data-name="Tracé 18" d="M105.768,24.4a1.471,1.471,0,0,0-.127-2.086l-3.593-3.187a1.478,1.478,0,1,0-1.959,2.214l3.593,3.187a1.494,1.494,0,0,0,2.086-.127" transform="translate(-8.813 -15.018)" fill="#222221"/>
    <path id="Tracé_19" data-name="Tracé 19" d="M112.008,52.821c.371,2.109,1.738,3.7,3.929,3.315a3.19,3.19,0,0,0,2.295-1.565l.394.637a.433.433,0,0,0,.394.2l.869-.151a.372.372,0,0,0,.29-.417L119,48.151a.354.354,0,0,0-.417-.29L116.7,48.2c-.185.035-.382.127-.325.417L117,52.138a1.227,1.227,0,0,1-.881,1.507c-.753.139-1.3-.452-1.437-1.217l-.6-3.419a.354.354,0,0,0-.417-.29l-1.97.348a.36.36,0,0,0-.29.417Zm-5.922-.012a1.036,1.036,0,0,1,.846-1.043,1.024,1.024,0,0,1,1.136.7Zm-2.573,1.518A3.985,3.985,0,0,0,110.606,56a.409.409,0,0,0-.081-.545l-1.113-.95a.331.331,0,0,0-.464.081,2.4,2.4,0,0,1-1.217.672,1.377,1.377,0,0,1-1.634-.974l4.427-.777a.365.365,0,0,0,.3-.371,3.969,3.969,0,0,0-.046-.51,3.506,3.506,0,0,0-4.126-2.851,3.911,3.911,0,0,0-3.141,4.555m-4.068,2.921a1.777,1.777,0,0,0,3.5-.614,1.777,1.777,0,1,0-3.5.614m-6,5.749c-.2-1.089.985-1.646.985-1.646.684-.116,1.368-.243,2.051-.359a1.233,1.233,0,0,1,1.611.95c.185,1.078-.95,1.982-2.167,2.191-1.252.232-2.33-.243-2.48-1.136M94.7,57.33a2.105,2.105,0,0,1-.73-4.138,2.114,2.114,0,0,1,.73,4.138m-3.442,2.608a1.809,1.809,0,0,0,1.657,1.518l.012.058a2.025,2.025,0,0,0-.765,1.912c.209,1.217,1.518,2.364,4,1.924,2.237-.394,3.57-2.133,3.292-3.662-.29-1.611-1.634-2.156-3.187-1.878l-2.654.464a.928.928,0,0,1-1.171-.73,1.412,1.412,0,0,1,.614-1.252,2.952,2.952,0,0,0,1.831.151,3.089,3.089,0,0,0,2.55-3.686,2.6,2.6,0,0,0-1.194-1.924l.962-.382a.312.312,0,0,0,.151-.348L97.3,51.79a.344.344,0,0,0-.417-.29l-3.118.556a3.16,3.16,0,0,0-2.55,3.8,3.387,3.387,0,0,0,.916,1.75,2.618,2.618,0,0,0-.869,2.33m-5.308.927a.372.372,0,0,0,.417.29l.568-.1a.372.372,0,0,0,.29-.417L86.36,55.7A2.406,2.406,0,0,1,88.191,54.3a1.912,1.912,0,0,1,.742.023c.2.046.359.012.417-.243l.116-.661c.093-.556-.846-.475-1.4-.382a2.76,2.76,0,0,0-2.04,1.368l-.243-.51a.3.3,0,0,0-.359-.2l-.348.058a.372.372,0,0,0-.29.417Zm-9.539-1.205c.348,1.959,1.31,3.222,3.454,2.84a3.406,3.406,0,0,0,2.225-1.4l.209.452c.093.174.185.29.382.255l.348-.058a.372.372,0,0,0,.29-.417l-1.182-6.687a.372.372,0,0,0-.417-.29l-.568.1a.372.372,0,0,0-.29.417c.719,4.1.8,4.532.869,4.937a2.938,2.938,0,0,1-2.017,1.437c-1.032.185-1.785-.394-2.028-1.8l-.684-3.906a.372.372,0,0,0-.417-.29l-.591.1a.372.372,0,0,0-.29.417Zm-8.159.869A2.453,2.453,0,1,1,71.131,62.8a2.568,2.568,0,0,1-2.874-2.272m-1.275.22a3.734,3.734,0,1,0,2.99-4.5,3.821,3.821,0,0,0-2.99,4.5M60.19,63.507l-.649-3.7a3.974,3.974,0,0,1,1.715-.753,2.412,2.412,0,0,1,2.886,2.214c.255,1.437-.371,2.863-1.715,3.106a2.555,2.555,0,0,1-2.237-.869m-.962,2.075a.372.372,0,0,0,.417.29l.382-.07a.342.342,0,0,0,.267-.348l.023-.522a3.35,3.35,0,0,0,2.445.579,3.73,3.73,0,0,0,2.677-4.5c-.382-2.167-2.005-3.628-4.23-3.234a4.044,4.044,0,0,0-1.889.834l-.962-5.494a.372.372,0,0,0-.417-.29l-.568.1a.372.372,0,0,0-.29.417Zm-7,.927a3.794,3.794,0,0,0,2.55.406,2.372,2.372,0,0,0,2.179-2.538c-.232-1.333-1.484-1.7-2.863-2.086-.823-.232-1.484-.406-1.588-1.02-.058-.313.093-.777.927-.927a3.779,3.779,0,0,1,1.553.185.418.418,0,0,0,.51-.267l.093-.325a.462.462,0,0,0-.209-.556,3.849,3.849,0,0,0-2.156-.209,2.112,2.112,0,0,0-2.005,2.341c.22,1.252,1.46,1.7,2.527,2.017,1.171.348,1.773.545,1.889,1.194.093.5-.29.962-1.043,1.1a3.239,3.239,0,0,1-1.854-.336.346.346,0,0,0-.487.139c-.035.1-.127.382-.174.51a.365.365,0,0,0,.151.371m-7.035-.394c-.174-.962.475-1.611,1.507-1.8a3.356,3.356,0,0,1,1.6.023l.255,1.46a2.648,2.648,0,0,1-1.843,1.391,1.249,1.249,0,0,1-1.518-1.078m-1.182.209a2.279,2.279,0,0,0,2.7,2.017,3.217,3.217,0,0,0,2.121-1.368l.232.475c.081.151.162.255.359.22l.348-.058a.372.372,0,0,0,.29-.417l-.719-4.1c-.382-2.156-1.008-3.037-2.9-2.712a6.92,6.92,0,0,0-2.48.939.3.3,0,0,0-.127.44l.232.44a.251.251,0,0,0,.382.127,6.784,6.784,0,0,1,2.144-.8c1.055-.185,1.333.417,1.553,1.785a6.161,6.161,0,0,0-1.611.035c-1.912.336-2.77,1.576-2.527,2.979m-5.3,2.874a.372.372,0,0,0,.417.29l.568-.1a.372.372,0,0,0,.29-.417l-.869-4.937a2.406,2.406,0,0,1,1.831-1.391,1.912,1.912,0,0,1,.742.023c.2.046.359.012.417-.243l.116-.672c.093-.556-.846-.475-1.4-.382a2.76,2.76,0,0,0-2.04,1.368l-.243-.51a.3.3,0,0,0-.359-.2l-.348.058a.372.372,0,0,0-.29.417Zm-6.1-.464c.2,1.147.579,1.993,2.063,1.739A4.792,4.792,0,0,0,36.7,69.465c.174-.162.22-.29.046-.487l-.359-.417c-.116-.127-.209-.232-.464-.035a3.541,3.541,0,0,1-1.275.649c-.429.081-.637-.035-.765-.777l-.765-4.323,2.144-.382a.354.354,0,0,0,.29-.417l-.07-.406a.351.351,0,0,0-.417-.29l-2.144.382-.371-2.086a.349.349,0,0,0-.394-.29l-.579.139a.372.372,0,0,0-.29.417l.359,2.051-.939.162a.344.344,0,0,0-.29.417l.07.406a.36.36,0,0,0,.417.29l.939-.162Zm-7.2,2.5a3.794,3.794,0,0,0,2.55.406,2.372,2.372,0,0,0,2.179-2.538c-.232-1.333-1.484-1.7-2.863-2.086-.823-.232-1.484-.406-1.588-1.02-.058-.313.093-.777.927-.927a3.779,3.779,0,0,1,1.553.185.422.422,0,0,0,.51-.255l.093-.325a.462.462,0,0,0-.209-.556,3.821,3.821,0,0,0-2.144-.209,2.112,2.112,0,0,0-2.005,2.341c.22,1.252,1.46,1.7,2.527,2.017,1.171.348,1.773.545,1.889,1.194.093.5-.29.962-1.043,1.1a3.239,3.239,0,0,1-1.854-.336.349.349,0,0,0-.487.139c-.035.1-.127.382-.174.51a.314.314,0,0,0,.139.359m-4.138.5a1.071,1.071,0,1,0,2.109-.371,1.06,1.06,0,0,0-1.24-.869,1.077,1.077,0,0,0-.869,1.24" transform="translate(-21.266 -10.392)" fill="#222221"/>
  </g>
  <path id="Tracé_20" data-name="Tracé 20" d="M134.613,35.227a.659.659,0,0,0,.742.522l3.384-.591c.533-.093.684-.359.614-.753l-1.205-6.873a1.793,1.793,0,0,1,1.426-2.2,2.649,2.649,0,0,1,.823.023.56.56,0,0,0,.672-.429l1.159-2.944c.325-.846-1.078-1.275-2.909-.962a4.656,4.656,0,0,0-3.234,2.828l-.858-1.356a.6.6,0,0,0-.672-.29l-1.565.278a.64.64,0,0,0-.522.742Zm-12.007-5.992a1.888,1.888,0,0,1,1.518-1.878,1.8,1.8,0,0,1,2.028,1.252Zm-4.613,2.735a7.008,7.008,0,0,0,8.159,5.749,6.885,6.885,0,0,0,4.578-2.758.723.723,0,0,0-.139-.962l-2.005-1.7a.59.59,0,0,0-.834.151,4.5,4.5,0,0,1-2.179,1.205,2.509,2.509,0,0,1-2.944-1.738l7.962-1.4a.646.646,0,0,0,.533-.672,7.7,7.7,0,0,0-.093-.9,6.3,6.3,0,0,0-7.406-5.123,6.98,6.98,0,0,0-5.633,8.159m-11.509,2.063a2.712,2.712,0,1,1,3.129,2.191,2.674,2.674,0,0,1-3.129-2.191m1.646,6.2a6.659,6.659,0,0,0,2.863.139c3.547-.626,6.2-3.454,5.378-8.125a6.822,6.822,0,0,0-7.8-5.807,5.821,5.821,0,0,0-4.08,2.874L103.9,28.3c-.2-.336-.487-.6-.811-.545l-1.565.278a.659.659,0,0,0-.522.742l3.883,21.963a.659.659,0,0,0,.742.522l3.686-.649a.659.659,0,0,0,.522-.742Zm-13.5,2.04a.659.659,0,0,0,.742.522l3.651-.649a.659.659,0,0,0,.522-.742L97.421,29.4a.638.638,0,0,0-.742-.522l-3.651.649a.64.64,0,0,0-.522.742Zm-.51-17.084A2.673,2.673,0,0,0,96.308,22.1a2.677,2.677,0,1,0-5.273.927,2.634,2.634,0,0,0,3.083,2.167M78.611,38.913a7.171,7.171,0,0,0,8.356,5.714,6.017,6.017,0,0,0,4.845-3.732c.174-.371-.046-.672-.394-.892l-2.295-1.379c-.232-.127-.51-.012-.707.267a2.925,2.925,0,0,1-2.075,1.426,2.658,2.658,0,0,1-3.06-2.225,2.728,2.728,0,0,1,2.179-3.152,2.693,2.693,0,0,1,2.075.522.624.624,0,0,0,.742-.058l1.657-2.237a.667.667,0,0,0,0-.962,6.283,6.283,0,0,0-5.4-1.507,7.229,7.229,0,0,0-5.922,8.217m-6.4,7.313a.659.659,0,0,0,.742.522l3.651-.637a.659.659,0,0,0,.522-.742L74.995,33.35a.638.638,0,0,0-.742-.522l-3.651.637a.646.646,0,0,0-.522.742Zm-.522-17.072a2.667,2.667,0,0,0,2.19-3.083A2.677,2.677,0,1,0,68.608,27a2.652,2.652,0,0,0,3.083,2.156M60.681,44.5c.533,3.013,2.272,4.358,4.8,3.906a17.2,17.2,0,0,0,3.883-1.437.675.675,0,0,0,.3-.834L68.446,43.5a.591.591,0,0,0-.811-.3,6.462,6.462,0,0,1-1.252.464c-.394.07-.9.093-1.032-.637l-.73-4.149,2.457-.429a.647.647,0,0,0,.522-.742l-.522-2.955a.629.629,0,0,0-.742-.522l-2.457.429-.649-3.686a.624.624,0,0,0-.707-.522l-3.547.626a.659.659,0,0,0-.522.742l.649,3.686-.858.151a.611.611,0,0,0-.487.73l.522,2.955a.624.624,0,0,0,.707.522l.858-.139ZM49.346,50.26a.659.659,0,0,0,.742.522l3.384-.591c.533-.093.684-.359.614-.753l-1.205-6.873a1.793,1.793,0,0,1,1.426-2.2,2.335,2.335,0,0,1,.823.023.566.566,0,0,0,.672-.429l1.159-2.944c.336-.846-1.078-1.275-2.909-.962a4.656,4.656,0,0,0-3.234,2.828l-.858-1.356a.6.6,0,0,0-.672-.29l-1.565.278a.64.64,0,0,0-.522.742ZM37.872,48.417a1.425,1.425,0,0,1,1.182-1.646,1.448,1.448,0,1,1,.5,2.851,1.457,1.457,0,0,1-1.681-1.205m-4.254,1.089a4.375,4.375,0,0,0,5.355,3.57,5.623,5.623,0,0,0,3.72-2.364l.626.811a.625.625,0,0,0,.672.325l1.46-.255a.659.659,0,0,0,.522-.742l-1.3-7.336c-.7-3.917-2.492-5.378-6.606-4.648a23.241,23.241,0,0,0-4.323,1.275.714.714,0,0,0-.336.985l.672,2.04c.151.487.452.811.916.556a13.776,13.776,0,0,1,3.234-1.078c1.588-.278,1.912.348,2.133,1.646a6.244,6.244,0,0,0-2.643-.081c-3.025.533-4.555,2.747-4.1,5.3m-12.054-.5A2.712,2.712,0,1,1,24.694,51.2a2.674,2.674,0,0,1-3.129-2.191m1.634,6.2a6.659,6.659,0,0,0,2.863.139c3.547-.626,6.2-3.454,5.378-8.125a6.822,6.822,0,0,0-7.8-5.807,5.821,5.821,0,0,0-4.08,2.874l-.591-1.02c-.2-.348-.487-.6-.811-.545L16.593,43a.659.659,0,0,0-.522.742l3.871,21.963a.659.659,0,0,0,.742.522l3.686-.649a.659.659,0,0,0,.522-.742Z" transform="translate(2.554 3.159)" fill="#8dc63f"/>
</svg>
